<svg class="svg-main" aria-label="Graphique à lignes avec une seule ligne" width="772" height="389" style="width: 100%;"><g clip-path="url(#content-clip)"><g transform="translate(35.9296875,6)"><rect class="bg" width="772" height="389"></rect><g><!----><!----><!----><!----><!----><!----><g class="x-grid" direction="ltr"><!----><!----><!----><!----></g><!----><!----><g class="y-grid" direction="ltr" transform="translate(0,0)"><!----><!----><g class="y-grid-lines grid-y datawrapper-KJNIZ-1mqm0ow"><line class="y-grid-line major datawrapper-KJNIZ-1mqm0ow" x1="0" x2="732.8046875" transform="translate(0, 11.513526665085989)"></line><line class="y-grid-line major datawrapper-KJNIZ-1mqm0ow" x1="0" x2="732.8046875" transform="translate(0, 99.38514499881452)"></line><line class="y-grid-line major datawrapper-KJNIZ-1mqm0ow" x1="0" x2="732.8046875" transform="translate(0, 187.25676333254302)"></line><line class="y-grid-line major datawrapper-KJNIZ-1mqm0ow" x1="0" x2="732.8046875" transform="translate(0, 275.1283816662715)"></line><!----><!----><!----></g><!----><!----></g></g><g><g class="area-fills"><path class="area-fill" d="M10,232.071L45.64,257.993L81.28,277.545L116.921,261.948L152.561,236.465L188.201,251.183L223.841,212.959L259.482,244.593L295.122,219.11L330.762,190.991L366.402,282.378L402.043,283.257L437.683,268.099L473.323,255.138L508.963,246.35L544.604,234.927L580.244,221.746L615.884,148.813L651.524,240.419L687.164,22.058L722.805,43.367L722.805,363L687.164,363L651.524,363L615.884,363L580.244,363L544.604,363L508.963,363L473.323,363L437.683,363L402.043,363L366.402,363L330.762,363L295.122,363L259.482,363L223.841,363L188.201,363L152.561,363L116.921,363L81.28,363L45.64,363L10,363Z" style="fill: rgb(125, 219, 254); opacity: 0.15;"></path></g><g class="lines"> <g class="line-group" style="opacity: 1;"><g class="line line-style-width-style0 line-style-dash-style0"><path aria-label="Ligne affichant 21 valeurs pour &quot;470&quot;." d="M10,232.071L45.64,257.993L81.28,277.545L116.921,261.948L152.561,236.465L188.201,251.183L223.841,212.959L259.482,244.593L295.122,219.11L330.762,190.991L366.402,282.378L402.043,283.257L437.683,268.099L473.323,255.138L508.963,246.35L544.604,234.927L580.244,221.746L615.884,148.813L651.524,240.419L687.164,22.058L722.805,43.367" style="stroke: rgb(24, 161, 205);"></path></g><g class="line-symbols" style="fill: rgb(24, 161, 205);"><path class="symbol" d="M1,0A1,1,0,1,1,-1,0A1,1,0,1,1,1,0" transform="translate(10,232.07128868274452) scale(3)" style="opacity: 0.5;"></path><path class="symbol" d="M1,0A1,1,0,1,1,-1,0A1,1,0,1,1,1,0" transform="translate(45.640234375,257.9934160911945) scale(3)" style="opacity: 0.5;"></path><path class="symbol" d="M1,0A1,1,0,1,1,-1,0A1,1,0,1,1,1,0" transform="translate(81.28046875,277.544851170449) scale(3)" style="opacity: 0.5;"></path><path class="symbol" d="M1,0A1,1,0,1,1,-1,0A1,1,0,1,1,1,0" transform="translate(116.920703125,261.9476389162122) scale(3)" style="opacity: 0.5;"></path><path class="symbol" d="M1,0A1,1,0,1,1,-1,0A1,1,0,1,1,1,0" transform="translate(152.5609375,236.46486959943098) scale(3)" style="opacity: 0.5;"></path><path class="symbol" d="M1,0A1,1,0,1,1,-1,0A1,1,0,1,1,1,0" transform="translate(188.201171875,251.1833656703305) scale(3)" style="opacity: 0.5;"></path><path class="symbol" d="M1,0A1,1,0,1,1,-1,0A1,1,0,1,1,1,0" transform="translate(223.84140625,212.9592116951586) scale(3)" style="opacity: 0.5;"></path><path class="symbol" d="M1,0A1,1,0,1,1,-1,0A1,1,0,1,1,1,0" transform="translate(259.48164062499995,244.59299429530085) scale(3)" style="opacity: 0.5;"></path><path class="symbol" d="M1,0A1,1,0,1,1,-1,0A1,1,0,1,1,1,0" transform="translate(295.121875,219.1102249785196) scale(3)" style="opacity: 0.5;"></path><path class="symbol" d="M1,0A1,1,0,1,1,-1,0A1,1,0,1,1,1,0" transform="translate(330.762109375,190.99130711172648) scale(3)" style="opacity: 0.5;"></path><path class="symbol" d="M1,0A1,1,0,1,1,-1,0A1,1,0,1,1,1,0" transform="translate(366.40234375,282.3777901788041) scale(3)" style="opacity: 0.5;"></path><path class="symbol" d="M1,0A1,1,0,1,1,-1,0A1,1,0,1,1,1,0" transform="translate(402.04257812500003,283.2565063621414) scale(3)" style="opacity: 0.5;"></path><path class="symbol" d="M1,0A1,1,0,1,1,-1,0A1,1,0,1,1,1,0" transform="translate(437.6828125,268.0986521995732) scale(3)" style="opacity: 0.5;"></path><path class="symbol" d="M1,0A1,1,0,1,1,-1,0A1,1,0,1,1,1,0" transform="translate(473.323046875,255.13758849534827) scale(3)" style="opacity: 0.5;"></path><path class="symbol" d="M1,0A1,1,0,1,1,-1,0A1,1,0,1,1,1,0" transform="translate(508.96328124999997,246.3504266619754) scale(3)" style="opacity: 0.5;"></path><path class="symbol" d="M1,0A1,1,0,1,1,-1,0A1,1,0,1,1,1,0" transform="translate(544.603515625,234.92711627859072) scale(3)" style="opacity: 0.5;"></path><path class="symbol" d="M1,0A1,1,0,1,1,-1,0A1,1,0,1,1,1,0" transform="translate(580.24375,221.74637352853145) scale(3)" style="opacity: 0.5;"></path><path class="symbol" d="M1,0A1,1,0,1,1,-1,0A1,1,0,1,1,1,0" transform="translate(615.883984375,148.81293031153677) scale(3)" style="opacity: 0.5;"></path><path class="symbol" d="M1,0A1,1,0,1,1,-1,0A1,1,0,1,1,1,0" transform="translate(651.52421875,240.41909242444873) scale(3)" style="opacity: 0.5;"></path><path class="symbol" d="M1,0A1,1,0,1,1,-1,0A1,1,0,1,1,1,0" transform="translate(687.164453125,22.058120865133446) scale(3)" style="opacity: 0.5;"></path><path class="symbol" d="M1,0A1,1,0,1,1,-1,0A1,1,0,1,1,1,0" transform="translate(722.8046875,43.3669883110626) scale(3)" style="opacity: 0.5;"></path></g><g class="label-marks" style="color: rgb(0, 132, 174);"><circle class="label-mark" transform="translate(81.28046875, 277.544851170449)" r="5"></circle><circle class="label-mark" transform="translate(330.762109375, 190.99130711172648)" r="5"></circle><circle class="label-mark" transform="translate(402.04257812500003, 283.2565063621414)" r="5"></circle><circle class="label-mark" transform="translate(580.24375, 221.74637352853145)" r="5"></circle><circle class="label-mark" transform="translate(615.883984375, 148.81293031153677)" r="5"></circle><circle class="label-mark" transform="translate(651.52421875, 240.41909242444873)" r="5"></circle><circle class="label-mark" transform="translate(687.164453125, 22.058120865133446)" r="5"></circle></g></g></g><g class="lbl-connect-lines"></g></g><g><!----><!----><!----><!----><!----><!----><g class="x-grid" direction="ltr"><!----><g class="x-tick-labels text-axis grid-x datawrapper-KJNIZ-inx4wh svelte-nmad35" transform="translate(0,368)" aria-orientation="horizontal" aria-label="Horizontal category axis. Categories: 2.0.0, 2.2.0, 2.4.0, 2.6.0, 2.8.0, 3.1.0, 3.3.0, 3.5.0, 3.7.0, 3.9.0, 4.1.0."><g><!----><text aria-hidden="true" class="x-tick-label bottom svelte-nmad35 is-zero first" transform="translate(10,12)" y="0"><tspan x="0" dy="0">2.0.0</tspan></text><!----><text aria-hidden="true" class="x-tick-label bottom svelte-nmad35" transform="translate(81.28046875,12)" y="0"><tspan x="0" dy="0">2.2.0</tspan></text><!----><text aria-hidden="true" class="x-tick-label bottom svelte-nmad35" transform="translate(152.5609375,12)" y="0"><tspan x="0" dy="0">2.4.0</tspan></text><!----><text aria-hidden="true" class="x-tick-label bottom svelte-nmad35" transform="translate(223.84140625,12)" y="0"><tspan x="0" dy="0">2.6.0</tspan></text><!----><text aria-hidden="true" class="x-tick-label bottom svelte-nmad35" transform="translate(295.121875,12)" y="0"><tspan x="0" dy="0">2.8.0</tspan></text><!----><text aria-hidden="true" class="x-tick-label bottom svelte-nmad35" transform="translate(366.40234375,12)" y="0"><tspan x="0" dy="0">3.1.0</tspan></text><!----><text aria-hidden="true" class="x-tick-label bottom svelte-nmad35" transform="translate(437.6828125,12)" y="0"><tspan x="0" dy="0">3.3.0</tspan></text><!----><text aria-hidden="true" class="x-tick-label bottom svelte-nmad35" transform="translate(508.96328124999997,12)" y="0"><tspan x="0" dy="0">3.5.0</tspan></text><!----><text aria-hidden="true" class="x-tick-label bottom svelte-nmad35" transform="translate(580.24375,12)" y="0"><tspan x="0" dy="0">3.7.0</tspan></text><!----><text aria-hidden="true" class="x-tick-label bottom svelte-nmad35" transform="translate(651.52421875,12)" y="0"><tspan x="0" dy="0">3.9.0</tspan></text><!----><text aria-hidden="true" class="x-tick-label bottom svelte-nmad35 last" transform="translate(722.8046875,12)" y="0"><tspan x="0" dy="0">4.1.0</tspan></text></g><g class="highlighted-ticks"></g></g><!----><!----><!----><!----><!----></g><!----><!----><g class="y-grid" direction="ltr" transform="translate(0,0)"><g class="y-tick-labels number-axis grid-y datawrapper-KJNIZ-1fzbge6" transform="translate(-5,0)" aria-orientation="vertical" aria-label="Axe vertical, allant de 0 à 1&nbsp;652,4." aria-valuemin="0" aria-valuemax="1652.4106731316074"><!----><!----><text aria-hidden="true" class="y-tick-label left is-zero last" transform="translate(0,367)" x="0" y="0"><tspan x="-1" dy="0">0</tspan></text><!----><!----><text aria-hidden="true" class="y-tick-label left" transform="translate(0,279.1283816662715)" x="0" y="0"><tspan x="-1" dy="0">400</tspan></text><!----><!----><text aria-hidden="true" class="y-tick-label left" transform="translate(0,191.25676333254302)" x="0" y="0"><tspan x="-1" dy="0">800</tspan></text><!----><!----><text aria-hidden="true" class="y-tick-label left" transform="translate(0,103.38514499881452)" x="0" y="0"><tspan x="-1" dy="0">1&nbsp;200</tspan></text><!----><!----><text aria-hidden="true" class="y-tick-label left first" transform="translate(0,15.513526665085989)" x="0" y="0"><tspan x="-1" dy="0">1&nbsp;600</tspan></text></g><!----><!----><!----><!----><g class="y-base-lines grid-y datawrapper-KJNIZ-1ro4gsw"><line x1="732.8046875" transform="translate(0, 363)"></line></g><!----></g></g><g><g class="value-labels"><g class="label-line" style="opacity: 1;"><text class="value-label" x="81.28046875" y="287.544851170449" dy="0.08em" text-anchor="middle" dominant-baseline="hanging" style="fill: rgb(0, 132, 174);">389</text><text class="value-label" x="330.762109375" y="180.99130711172648" dy="0.08em" text-anchor="middle" dominant-baseline="alphabetic" style="fill: rgb(0, 132, 174);">783</text><text class="value-label" x="402.04257812500003" y="293.2565063621414" dy="0.08em" text-anchor="middle" dominant-baseline="hanging" style="fill: rgb(0, 132, 174);">363</text><text class="value-label" x="580.24375" y="231.74637352853145" dy="0.08em" text-anchor="middle" dominant-baseline="hanging" style="fill: rgb(0, 132, 174);">643</text><text class="value-label" x="605.883984375" y="148.81293031153677" dy="0.08em" text-anchor="end" dominant-baseline="middle" style="fill: rgb(0, 132, 174);">975</text><text class="value-label" x="651.52421875" y="250.41909242444873" dy="0.08em" text-anchor="middle" dominant-baseline="hanging" style="fill: rgb(0, 132, 174);">558</text><text class="value-label" x="677.164453125" y="22.058120865133446" dy="0.08em" text-anchor="end" dominant-baseline="middle" style="fill: rgb(0, 132, 174);">1&nbsp;552</text></g></g><g class="inner-value-labels"></g></g></g></g><defs><clipPath id="content-clip"><rect x="0" y="0" width="772" height="389"></rect></clipPath></defs></svg>